<mxfile host="app.diagrams.net" modified="2024-01-10T16:57:27.067Z" agent="Mozilla/5.0 (Windows NT 10.0; Win64; x64) AppleWebKit/537.36 (KHTML, like Gecko) Chrome/120.0.0.0 Safari/537.36" etag="w3o7zT4hq4MsKPzY-PN6" version="22.1.18" type="github" pages="2">
  <diagram name="UseCases" id="XJpoBe87E8l241bRWTER">
    <mxGraphModel dx="1687" dy="918" grid="1" gridSize="10" guides="1" tooltips="1" connect="1" arrows="1" fold="1" page="1" pageScale="1" pageWidth="827" pageHeight="1169" math="0" shadow="0">
      <root>
        <mxCell id="0" />
        <mxCell id="1" parent="0" />
        <mxCell id="Q2uOug_EIyGPVNH_T82b-1" value="Login/Logout" style="rounded=1;whiteSpace=wrap;html=1;" vertex="1" parent="1">
          <mxGeometry x="200" y="460" width="120" height="60" as="geometry" />
        </mxCell>
        <mxCell id="Q2uOug_EIyGPVNH_T82b-2" value="Manage Profile&lt;br&gt;(change password, update personal info)" style="rounded=1;whiteSpace=wrap;html=1;" vertex="1" parent="1">
          <mxGeometry x="440" y="460" width="120" height="60" as="geometry" />
        </mxCell>
        <mxCell id="Q2uOug_EIyGPVNH_T82b-3" value="Register" style="rounded=1;whiteSpace=wrap;html=1;" vertex="1" parent="1">
          <mxGeometry y="460" width="120" height="60" as="geometry" />
        </mxCell>
        <mxCell id="Q2uOug_EIyGPVNH_T82b-4" value="Guest" style="shape=umlActor;verticalLabelPosition=bottom;verticalAlign=top;html=1;outlineConnect=0;" vertex="1" parent="1">
          <mxGeometry x="160" y="330" width="30" height="60" as="geometry" />
        </mxCell>
        <mxCell id="Q2uOug_EIyGPVNH_T82b-5" value="Registered User" style="shape=umlActor;verticalLabelPosition=bottom;verticalAlign=top;html=1;outlineConnect=0;" vertex="1" parent="1">
          <mxGeometry x="570" y="330" width="30" height="60" as="geometry" />
        </mxCell>
        <mxCell id="Q2uOug_EIyGPVNH_T82b-6" value="Employee" style="shape=umlActor;verticalLabelPosition=bottom;verticalAlign=top;html=1;outlineConnect=0;" vertex="1" parent="1">
          <mxGeometry x="160" y="600" width="30" height="60" as="geometry" />
        </mxCell>
        <mxCell id="Q2uOug_EIyGPVNH_T82b-7" value="Admin" style="shape=umlActor;verticalLabelPosition=bottom;verticalAlign=top;html=1;outlineConnect=0;" vertex="1" parent="1">
          <mxGeometry x="570" y="600" width="30" height="60" as="geometry" />
        </mxCell>
        <mxCell id="Q2uOug_EIyGPVNH_T82b-8" value="" style="endArrow=classic;startArrow=classic;html=1;rounded=0;" edge="1" parent="1">
          <mxGeometry width="50" height="50" relative="1" as="geometry">
            <mxPoint x="440" y="490" as="sourcePoint" />
            <mxPoint x="320" y="490" as="targetPoint" />
          </mxGeometry>
        </mxCell>
        <mxCell id="Q2uOug_EIyGPVNH_T82b-9" value="Manage Accounts&lt;br&gt;(create, modify, suspend)" style="rounded=1;whiteSpace=wrap;html=1;" vertex="1" parent="1">
          <mxGeometry x="320" y="700" width="120" height="60" as="geometry" />
        </mxCell>
        <mxCell id="Q2uOug_EIyGPVNH_T82b-10" value="Manage e-books&lt;br&gt;(add to catalog, edit, make unavailable)" style="rounded=1;whiteSpace=wrap;html=1;" vertex="1" parent="1">
          <mxGeometry x="320" y="600" width="120" height="60" as="geometry" />
        </mxCell>
        <mxCell id="Q2uOug_EIyGPVNH_T82b-11" value="" style="endArrow=classic;html=1;rounded=0;" edge="1" parent="1" target="Q2uOug_EIyGPVNH_T82b-10">
          <mxGeometry width="50" height="50" relative="1" as="geometry">
            <mxPoint x="200" y="630" as="sourcePoint" />
            <mxPoint x="250" y="570" as="targetPoint" />
          </mxGeometry>
        </mxCell>
        <mxCell id="Q2uOug_EIyGPVNH_T82b-12" value="" style="endArrow=classic;html=1;rounded=0;entryX=1;entryY=0.5;entryDx=0;entryDy=0;entryPerimeter=0;" edge="1" parent="1" target="Q2uOug_EIyGPVNH_T82b-9">
          <mxGeometry width="50" height="50" relative="1" as="geometry">
            <mxPoint x="580" y="690" as="sourcePoint" />
            <mxPoint x="380" y="480" as="targetPoint" />
            <Array as="points">
              <mxPoint x="580" y="730" />
            </Array>
          </mxGeometry>
        </mxCell>
        <mxCell id="Q2uOug_EIyGPVNH_T82b-13" value="" style="endArrow=classic;html=1;rounded=0;entryX=1;entryY=0.5;entryDx=0;entryDy=0;" edge="1" parent="1" target="Q2uOug_EIyGPVNH_T82b-10">
          <mxGeometry width="50" height="50" relative="1" as="geometry">
            <mxPoint x="560" y="630" as="sourcePoint" />
            <mxPoint x="250" y="570" as="targetPoint" />
          </mxGeometry>
        </mxCell>
        <mxCell id="Q2uOug_EIyGPVNH_T82b-14" value="" style="endArrow=none;html=1;rounded=0;startArrow=classicThin;startFill=1;" edge="1" parent="1">
          <mxGeometry width="50" height="50" relative="1" as="geometry">
            <mxPoint x="380" y="490" as="sourcePoint" />
            <mxPoint x="560" y="360" as="targetPoint" />
            <Array as="points">
              <mxPoint x="380" y="360" />
            </Array>
          </mxGeometry>
        </mxCell>
        <mxCell id="Q2uOug_EIyGPVNH_T82b-15" value="" style="endArrow=none;dashed=1;html=1;dashPattern=1 3;strokeWidth=2;rounded=0;entryX=0;entryY=0.5;entryDx=0;entryDy=0;strokeColor=default;startArrow=classicThin;startFill=1;exitX=1;exitY=0.5;exitDx=0;exitDy=0;" edge="1" parent="1" source="Q2uOug_EIyGPVNH_T82b-3" target="Q2uOug_EIyGPVNH_T82b-1">
          <mxGeometry width="50" height="50" relative="1" as="geometry">
            <mxPoint x="100" y="440" as="sourcePoint" />
            <mxPoint x="250" y="440" as="targetPoint" />
            <Array as="points" />
          </mxGeometry>
        </mxCell>
        <mxCell id="Q2uOug_EIyGPVNH_T82b-16" value="" style="endArrow=classic;html=1;rounded=0;entryX=0.5;entryY=0;entryDx=0;entryDy=0;" edge="1" parent="1" target="Q2uOug_EIyGPVNH_T82b-3">
          <mxGeometry width="50" height="50" relative="1" as="geometry">
            <mxPoint x="150" y="380" as="sourcePoint" />
            <mxPoint x="250" y="440" as="targetPoint" />
            <Array as="points">
              <mxPoint x="60" y="380" />
            </Array>
          </mxGeometry>
        </mxCell>
        <mxCell id="Q2uOug_EIyGPVNH_T82b-17" value="Manage Cart&lt;br&gt;(add and remove items, empty it)" style="rounded=1;whiteSpace=wrap;html=1;" vertex="1" parent="1">
          <mxGeometry x="460" y="170" width="120" height="60" as="geometry" />
        </mxCell>
        <mxCell id="Q2uOug_EIyGPVNH_T82b-18" value="Filter the Results" style="rounded=1;whiteSpace=wrap;html=1;" vertex="1" parent="1">
          <mxGeometry x="320" y="170" width="120" height="60" as="geometry" />
        </mxCell>
        <mxCell id="Q2uOug_EIyGPVNH_T82b-19" value="Browse" style="rounded=1;whiteSpace=wrap;html=1;" vertex="1" parent="1">
          <mxGeometry x="180" y="170" width="120" height="60" as="geometry" />
        </mxCell>
        <mxCell id="Q2uOug_EIyGPVNH_T82b-20" value="" style="endArrow=classic;html=1;rounded=0;" edge="1" parent="1">
          <mxGeometry width="50" height="50" relative="1" as="geometry">
            <mxPoint x="520" y="270" as="sourcePoint" />
            <mxPoint x="520" y="230" as="targetPoint" />
          </mxGeometry>
        </mxCell>
        <mxCell id="Q2uOug_EIyGPVNH_T82b-21" value="" style="endArrow=classic;html=1;rounded=0;" edge="1" parent="1">
          <mxGeometry width="50" height="50" relative="1" as="geometry">
            <mxPoint x="379.65999999999997" y="269" as="sourcePoint" />
            <mxPoint x="379.65999999999997" y="229" as="targetPoint" />
          </mxGeometry>
        </mxCell>
        <mxCell id="Q2uOug_EIyGPVNH_T82b-22" value="" style="endArrow=classic;html=1;rounded=0;" edge="1" parent="1">
          <mxGeometry width="50" height="50" relative="1" as="geometry">
            <mxPoint x="239.65999999999997" y="270" as="sourcePoint" />
            <mxPoint x="239.65999999999997" y="230" as="targetPoint" />
          </mxGeometry>
        </mxCell>
        <mxCell id="Q2uOug_EIyGPVNH_T82b-23" value="" style="endArrow=none;html=1;rounded=0;" edge="1" parent="1">
          <mxGeometry width="50" height="50" relative="1" as="geometry">
            <mxPoint x="520" y="270" as="sourcePoint" />
            <mxPoint x="240" y="270" as="targetPoint" />
          </mxGeometry>
        </mxCell>
        <mxCell id="Q2uOug_EIyGPVNH_T82b-24" value="" style="endArrow=none;html=1;rounded=0;startArrow=classicThin;startFill=1;" edge="1" parent="1">
          <mxGeometry width="50" height="50" relative="1" as="geometry">
            <mxPoint x="270" y="270" as="sourcePoint" />
            <mxPoint x="200" y="340" as="targetPoint" />
            <Array as="points">
              <mxPoint x="270" y="340" />
            </Array>
          </mxGeometry>
        </mxCell>
        <mxCell id="Q2uOug_EIyGPVNH_T82b-25" value="" style="endArrow=none;html=1;rounded=0;startArrow=classicThin;startFill=1;" edge="1" parent="1">
          <mxGeometry width="50" height="50" relative="1" as="geometry">
            <mxPoint x="490" y="270" as="sourcePoint" />
            <mxPoint x="560" y="340" as="targetPoint" />
            <Array as="points">
              <mxPoint x="490" y="340" />
            </Array>
          </mxGeometry>
        </mxCell>
        <mxCell id="Q2uOug_EIyGPVNH_T82b-26" value="" style="endArrow=classic;html=1;rounded=0;" edge="1" parent="1">
          <mxGeometry width="50" height="50" relative="1" as="geometry">
            <mxPoint x="580" y="590" as="sourcePoint" />
            <mxPoint x="400" y="490" as="targetPoint" />
            <Array as="points">
              <mxPoint x="580" y="560" />
              <mxPoint x="400" y="560" />
            </Array>
          </mxGeometry>
        </mxCell>
        <mxCell id="Q2uOug_EIyGPVNH_T82b-27" value="" style="endArrow=classic;html=1;rounded=0;" edge="1" parent="1">
          <mxGeometry width="50" height="50" relative="1" as="geometry">
            <mxPoint x="180" y="590" as="sourcePoint" />
            <mxPoint x="360" y="490" as="targetPoint" />
            <Array as="points">
              <mxPoint x="180" y="560" />
              <mxPoint x="360" y="560" />
            </Array>
          </mxGeometry>
        </mxCell>
        <mxCell id="Q2uOug_EIyGPVNH_T82b-28" value="" style="endArrow=classicThin;dashed=1;html=1;dashPattern=1 3;strokeWidth=2;rounded=0;exitX=0.75;exitY=0;exitDx=0;exitDy=0;entryX=0.25;entryY=0;entryDx=0;entryDy=0;startArrow=none;startFill=0;endFill=1;" edge="1" parent="1" source="Q2uOug_EIyGPVNH_T82b-19" target="Q2uOug_EIyGPVNH_T82b-18">
          <mxGeometry width="50" height="50" relative="1" as="geometry">
            <mxPoint x="270" y="370" as="sourcePoint" />
            <mxPoint x="320" y="320" as="targetPoint" />
            <Array as="points">
              <mxPoint x="270" y="140" />
              <mxPoint x="350" y="140" />
            </Array>
          </mxGeometry>
        </mxCell>
        <mxCell id="Q2uOug_EIyGPVNH_T82b-29" value="Check Purchase History" style="rounded=1;whiteSpace=wrap;html=1;" vertex="1" parent="1">
          <mxGeometry x="680" y="460" width="120" height="60" as="geometry" />
        </mxCell>
        <mxCell id="Q2uOug_EIyGPVNH_T82b-30" value="Buy (the e-books in the cart)" style="rounded=1;whiteSpace=wrap;html=1;" vertex="1" parent="1">
          <mxGeometry x="680" y="220" width="120" height="60" as="geometry" />
        </mxCell>
        <mxCell id="Q2uOug_EIyGPVNH_T82b-31" value="Read e-books" style="rounded=1;whiteSpace=wrap;html=1;" vertex="1" parent="1">
          <mxGeometry x="680" y="380" width="120" height="60" as="geometry" />
        </mxCell>
        <mxCell id="Q2uOug_EIyGPVNH_T82b-32" value="Browse Library" style="rounded=1;whiteSpace=wrap;html=1;" vertex="1" parent="1">
          <mxGeometry x="680" y="300" width="120" height="60" as="geometry" />
        </mxCell>
        <mxCell id="Q2uOug_EIyGPVNH_T82b-33" value="" style="endArrow=none;html=1;rounded=0;" edge="1" parent="1">
          <mxGeometry width="50" height="50" relative="1" as="geometry">
            <mxPoint x="660" y="490" as="sourcePoint" />
            <mxPoint x="660" y="250" as="targetPoint" />
          </mxGeometry>
        </mxCell>
        <mxCell id="Q2uOug_EIyGPVNH_T82b-34" value="" style="endArrow=classic;html=1;rounded=0;entryX=0;entryY=0.5;entryDx=0;entryDy=0;" edge="1" parent="1" target="Q2uOug_EIyGPVNH_T82b-29">
          <mxGeometry width="50" height="50" relative="1" as="geometry">
            <mxPoint x="660" y="490" as="sourcePoint" />
            <mxPoint x="490" y="380" as="targetPoint" />
          </mxGeometry>
        </mxCell>
        <mxCell id="Q2uOug_EIyGPVNH_T82b-35" value="" style="endArrow=classic;html=1;rounded=0;entryX=0;entryY=0.5;entryDx=0;entryDy=0;" edge="1" parent="1">
          <mxGeometry width="50" height="50" relative="1" as="geometry">
            <mxPoint x="660" y="409.65999999999997" as="sourcePoint" />
            <mxPoint x="680" y="409.65999999999997" as="targetPoint" />
          </mxGeometry>
        </mxCell>
        <mxCell id="Q2uOug_EIyGPVNH_T82b-36" value="" style="endArrow=classic;html=1;rounded=0;entryX=0;entryY=0.5;entryDx=0;entryDy=0;" edge="1" parent="1">
          <mxGeometry width="50" height="50" relative="1" as="geometry">
            <mxPoint x="660" y="329.31" as="sourcePoint" />
            <mxPoint x="680" y="329.31" as="targetPoint" />
          </mxGeometry>
        </mxCell>
        <mxCell id="Q2uOug_EIyGPVNH_T82b-37" value="" style="endArrow=classic;html=1;rounded=0;entryX=0;entryY=0.5;entryDx=0;entryDy=0;" edge="1" parent="1">
          <mxGeometry width="50" height="50" relative="1" as="geometry">
            <mxPoint x="660" y="249.66000000000003" as="sourcePoint" />
            <mxPoint x="680" y="249.66000000000003" as="targetPoint" />
          </mxGeometry>
        </mxCell>
        <mxCell id="Q2uOug_EIyGPVNH_T82b-38" value="" style="endArrow=classic;html=1;rounded=0;" edge="1" parent="1">
          <mxGeometry width="50" height="50" relative="1" as="geometry">
            <mxPoint x="610" y="350" as="sourcePoint" />
            <mxPoint x="660" y="350" as="targetPoint" />
          </mxGeometry>
        </mxCell>
        <mxCell id="Q2uOug_EIyGPVNH_T82b-39" value="" style="endArrow=classicThin;dashed=1;html=1;dashPattern=1 3;strokeWidth=2;rounded=0;entryX=0.5;entryY=0;entryDx=0;entryDy=0;exitX=1.011;exitY=0.344;exitDx=0;exitDy=0;exitPerimeter=0;endFill=1;" edge="1" parent="1" source="Q2uOug_EIyGPVNH_T82b-17" target="Q2uOug_EIyGPVNH_T82b-30">
          <mxGeometry width="50" height="50" relative="1" as="geometry">
            <mxPoint x="460" y="360" as="sourcePoint" />
            <mxPoint x="510" y="310" as="targetPoint" />
            <Array as="points">
              <mxPoint x="740" y="190" />
            </Array>
          </mxGeometry>
        </mxCell>
        <mxCell id="Q2uOug_EIyGPVNH_T82b-40" value="" style="endArrow=none;dashed=1;html=1;dashPattern=1 3;strokeWidth=2;rounded=0;entryX=1;entryY=0.5;entryDx=0;entryDy=0;exitX=1;exitY=0.5;exitDx=0;exitDy=0;endFill=0;startArrow=classicThin;startFill=1;" edge="1" parent="1" source="Q2uOug_EIyGPVNH_T82b-31" target="Q2uOug_EIyGPVNH_T82b-32">
          <mxGeometry width="50" height="50" relative="1" as="geometry">
            <mxPoint x="820" y="380" as="sourcePoint" />
            <mxPoint x="870" y="330" as="targetPoint" />
            <Array as="points">
              <mxPoint x="820" y="410" />
              <mxPoint x="820" y="330" />
            </Array>
          </mxGeometry>
        </mxCell>
      </root>
    </mxGraphModel>
  </diagram>
  <diagram id="Jb7bmL4ZUwNui2YDyCHk" name="APIinteraction">
    <mxGraphModel dx="1434" dy="780" grid="1" gridSize="10" guides="1" tooltips="1" connect="1" arrows="1" fold="1" page="1" pageScale="1" pageWidth="827" pageHeight="1169" math="0" shadow="0">
      <root>
        <mxCell id="0" />
        <mxCell id="1" parent="0" />
        <mxCell id="Q_pDozcvyMA1rY160len-1" value="ProductCatalogAPI" style="swimlane;fontStyle=0;childLayout=stackLayout;horizontal=1;startSize=26;fillColor=none;horizontalStack=0;resizeParent=1;resizeParentMax=0;resizeLast=0;collapsible=1;marginBottom=0;whiteSpace=wrap;html=1;" vertex="1" parent="1">
          <mxGeometry x="490" y="110" width="140" height="141" as="geometry" />
        </mxCell>
        <mxCell id="Q_pDozcvyMA1rY160len-2" value="+ addProduct()&lt;br&gt;+ modifyProduct()&lt;br&gt;+ makeUnavailable()&lt;br&gt;&lt;br&gt;+ getProducts()&lt;br&gt;+ getFilteredProducts()&lt;br&gt;+ getProductDetails()" style="text;strokeColor=none;fillColor=none;align=left;verticalAlign=top;spacingLeft=4;spacingRight=4;overflow=hidden;rotatable=0;points=[[0,0.5],[1,0.5]];portConstraint=eastwest;whiteSpace=wrap;html=1;" vertex="1" parent="Q_pDozcvyMA1rY160len-1">
          <mxGeometry y="26" width="140" height="115" as="geometry" />
        </mxCell>
        <mxCell id="Q_pDozcvyMA1rY160len-3" value="AccountsAPI" style="swimlane;fontStyle=0;childLayout=stackLayout;horizontal=1;startSize=26;fillColor=none;horizontalStack=0;resizeParent=1;resizeParentMax=0;resizeLast=0;collapsible=1;marginBottom=0;whiteSpace=wrap;html=1;" vertex="1" parent="1">
          <mxGeometry x="160" y="110" width="140" height="211" as="geometry" />
        </mxCell>
        <mxCell id="Q_pDozcvyMA1rY160len-4" value="+ login()&lt;br&gt;+ logout()&lt;br&gt;+ register()&lt;br&gt;&lt;br&gt;+ updateInfo()&lt;br&gt;+ changePassword()&lt;br&gt;&lt;br&gt;+ addAccount()&lt;br&gt;+ suspendAccount()&lt;br&gt;&lt;br&gt;+ verifyLogin()&lt;br&gt;+ updateUserLibrary()" style="text;strokeColor=none;fillColor=none;align=left;verticalAlign=top;spacingLeft=4;spacingRight=4;overflow=hidden;rotatable=0;points=[[0,0.5],[1,0.5]];portConstraint=eastwest;whiteSpace=wrap;html=1;" vertex="1" parent="Q_pDozcvyMA1rY160len-3">
          <mxGeometry y="26" width="140" height="185" as="geometry" />
        </mxCell>
        <mxCell id="Q_pDozcvyMA1rY160len-5" value="ShoppingCartAPI" style="swimlane;fontStyle=0;childLayout=stackLayout;horizontal=1;startSize=26;fillColor=none;horizontalStack=0;resizeParent=1;resizeParentMax=0;resizeLast=0;collapsible=1;marginBottom=0;whiteSpace=wrap;html=1;" vertex="1" parent="1">
          <mxGeometry x="160" y="370" width="140" height="115" as="geometry" />
        </mxCell>
        <mxCell id="Q_pDozcvyMA1rY160len-6" value="+ addProduct()&lt;br&gt;+ removeProduct()&lt;br&gt;+ emptyCart()&lt;br&gt;&lt;br&gt;+ getContents()" style="text;strokeColor=none;fillColor=none;align=left;verticalAlign=top;spacingLeft=4;spacingRight=4;overflow=hidden;rotatable=0;points=[[0,0.5],[1,0.5]];portConstraint=eastwest;whiteSpace=wrap;html=1;" vertex="1" parent="Q_pDozcvyMA1rY160len-5">
          <mxGeometry y="26" width="140" height="89" as="geometry" />
        </mxCell>
        <mxCell id="Q_pDozcvyMA1rY160len-7" value="PurchaseAPI" style="swimlane;fontStyle=0;childLayout=stackLayout;horizontal=1;startSize=26;fillColor=none;horizontalStack=0;resizeParent=1;resizeParentMax=0;resizeLast=0;collapsible=1;marginBottom=0;whiteSpace=wrap;html=1;" vertex="1" parent="1">
          <mxGeometry x="160" y="580" width="140" height="52" as="geometry" />
        </mxCell>
        <mxCell id="Q_pDozcvyMA1rY160len-8" value="+ placeOrder()" style="text;strokeColor=none;fillColor=none;align=left;verticalAlign=top;spacingLeft=4;spacingRight=4;overflow=hidden;rotatable=0;points=[[0,0.5],[1,0.5]];portConstraint=eastwest;whiteSpace=wrap;html=1;" vertex="1" parent="Q_pDozcvyMA1rY160len-7">
          <mxGeometry y="26" width="140" height="26" as="geometry" />
        </mxCell>
        <mxCell id="Q_pDozcvyMA1rY160len-9" value="PaymentAPI" style="swimlane;fontStyle=0;childLayout=stackLayout;horizontal=1;startSize=26;fillColor=none;horizontalStack=0;resizeParent=1;resizeParentMax=0;resizeLast=0;collapsible=1;marginBottom=0;whiteSpace=wrap;html=1;" vertex="1" parent="1">
          <mxGeometry x="510" y="580" width="140" height="52" as="geometry" />
        </mxCell>
        <mxCell id="Q_pDozcvyMA1rY160len-10" value="+ paymentRequest()" style="text;strokeColor=none;fillColor=none;align=left;verticalAlign=top;spacingLeft=4;spacingRight=4;overflow=hidden;rotatable=0;points=[[0,0.5],[1,0.5]];portConstraint=eastwest;whiteSpace=wrap;html=1;" vertex="1" parent="Q_pDozcvyMA1rY160len-9">
          <mxGeometry y="26" width="140" height="26" as="geometry" />
        </mxCell>
        <mxCell id="Q_pDozcvyMA1rY160len-11" value="OnlineShop" style="swimlane;fontStyle=0;childLayout=stackLayout;horizontal=1;startSize=26;fillColor=none;horizontalStack=0;resizeParent=1;resizeParentMax=0;resizeLast=0;collapsible=1;marginBottom=0;whiteSpace=wrap;html=1;" vertex="1" parent="1">
          <mxGeometry x="468" y="390" width="140" height="52" as="geometry" />
        </mxCell>
        <mxCell id="Q_pDozcvyMA1rY160len-12" value="" style="endArrow=classic;html=1;rounded=0;" edge="1" parent="1" source="Q_pDozcvyMA1rY160len-11" target="Q_pDozcvyMA1rY160len-3">
          <mxGeometry width="50" height="50" relative="1" as="geometry">
            <mxPoint x="370" y="380" as="sourcePoint" />
            <mxPoint x="420" y="330" as="targetPoint" />
          </mxGeometry>
        </mxCell>
        <mxCell id="Q_pDozcvyMA1rY160len-13" value="" style="endArrow=classic;html=1;rounded=0;" edge="1" parent="1" source="Q_pDozcvyMA1rY160len-11" target="Q_pDozcvyMA1rY160len-1">
          <mxGeometry width="50" height="50" relative="1" as="geometry">
            <mxPoint x="420" y="408" as="sourcePoint" />
            <mxPoint x="390" y="338" as="targetPoint" />
          </mxGeometry>
        </mxCell>
        <mxCell id="Q_pDozcvyMA1rY160len-14" value="" style="endArrow=classic;html=1;rounded=0;" edge="1" parent="1" source="Q_pDozcvyMA1rY160len-11" target="Q_pDozcvyMA1rY160len-5">
          <mxGeometry width="50" height="50" relative="1" as="geometry">
            <mxPoint x="420" y="449" as="sourcePoint" />
            <mxPoint x="240" y="310" as="targetPoint" />
          </mxGeometry>
        </mxCell>
        <mxCell id="Q_pDozcvyMA1rY160len-15" value="" style="endArrow=classic;html=1;rounded=0;" edge="1" parent="1" source="Q_pDozcvyMA1rY160len-7" target="Q_pDozcvyMA1rY160len-9">
          <mxGeometry width="50" height="50" relative="1" as="geometry">
            <mxPoint x="380" y="620" as="sourcePoint" />
            <mxPoint x="430" y="630" as="targetPoint" />
          </mxGeometry>
        </mxCell>
        <mxCell id="Q_pDozcvyMA1rY160len-16" value="" style="endArrow=classic;html=1;rounded=0;" edge="1" parent="1" source="Q_pDozcvyMA1rY160len-5" target="Q_pDozcvyMA1rY160len-7">
          <mxGeometry width="50" height="50" relative="1" as="geometry">
            <mxPoint x="390" y="580" as="sourcePoint" />
            <mxPoint x="440" y="530" as="targetPoint" />
          </mxGeometry>
        </mxCell>
        <mxCell id="Q_pDozcvyMA1rY160len-17" value="" style="endArrow=classic;html=1;rounded=0;" edge="1" parent="1" source="Q_pDozcvyMA1rY160len-7" target="Q_pDozcvyMA1rY160len-3">
          <mxGeometry width="50" height="50" relative="1" as="geometry">
            <mxPoint x="100" y="570" as="sourcePoint" />
            <mxPoint x="100" y="190" as="targetPoint" />
            <Array as="points">
              <mxPoint x="110" y="606" />
              <mxPoint x="110" y="211" />
            </Array>
          </mxGeometry>
        </mxCell>
        <mxCell id="Q_pDozcvyMA1rY160len-18" value="" style="endArrow=classic;html=1;rounded=0;" edge="1" parent="1" source="Q_pDozcvyMA1rY160len-11" target="Q_pDozcvyMA1rY160len-7">
          <mxGeometry width="50" height="50" relative="1" as="geometry">
            <mxPoint x="422" y="548" as="sourcePoint" />
            <mxPoint x="472" y="498" as="targetPoint" />
          </mxGeometry>
        </mxCell>
      </root>
    </mxGraphModel>
  </diagram>
</mxfile>
